<svg xmlns="http://www.w3.org/2000/svg" width="740" height="452" viewBox="0 0 740 452" font-family="Menlo, Consolas, monospace" font-size="13">
  <rect x="0" y="0" width="740" height="452" rx="8" fill="#242a34"/>
  <text x="15" y="28" fill="#8296aa" font-size="12">Neutrals</text>
  <rect x="15" y="38" width="170" height="44" rx="6" fill="#1d232b" stroke="#515f72" stroke-width="0.75"/>
  <text x="100" y="56" text-anchor="middle" fill="#e1e4e8" font-weight="bold">BG0</text>
  <text x="100" y="72" text-anchor="middle" fill="#e1e4e8" font-size="11">#1d232b</text>
  <rect x="195" y="38" width="170" height="44" rx="6" fill="#222831" stroke="#515f72" stroke-width="0.75"/>
  <text x="280" y="56" text-anchor="middle" fill="#e1e4e8" font-weight="bold">BG1</text>
  <text x="280" y="72" text-anchor="middle" fill="#e1e4e8" font-size="11">#222831</text>
  <rect x="375" y="38" width="170" height="44" rx="6" fill="#242a34" stroke="#515f72" stroke-width="0.75"/>
  <text x="460" y="56" text-anchor="middle" fill="#e1e4e8" font-weight="bold">BG2</text>
  <text x="460" y="72" text-anchor="middle" fill="#e1e4e8" font-size="11">#242a34</text>
  <rect x="555" y="38" width="170" height="44" rx="6" fill="#323a44" stroke="#515f72" stroke-width="0.75"/>
  <text x="640" y="56" text-anchor="middle" fill="#e1e4e8" font-weight="bold">BG3</text>
  <text x="640" y="72" text-anchor="middle" fill="#e1e4e8" font-size="11">#323a44</text>
  <rect x="15" y="92" width="170" height="44" rx="6" fill="#3a4555" stroke="#515f72" stroke-width="0.75"/>
  <text x="100" y="110" text-anchor="middle" fill="#e1e4e8" font-weight="bold">BG4</text>
  <text x="100" y="126" text-anchor="middle" fill="#e1e4e8" font-size="11">#3a4555</text>
  <rect x="195" y="92" width="170" height="44" rx="6" fill="#202f42" stroke="#515f72" stroke-width="0.75"/>
  <text x="280" y="110" text-anchor="middle" fill="#e1e4e8" font-weight="bold">NAVY</text>
  <text x="280" y="126" text-anchor="middle" fill="#e1e4e8" font-size="11">#202f42</text>
  <rect x="375" y="92" width="170" height="44" rx="6" fill="#e1e4e8" stroke="#515f72" stroke-width="0.75"/>
  <text x="460" y="110" text-anchor="middle" fill="#242a34" font-weight="bold">FG0</text>
  <text x="460" y="126" text-anchor="middle" fill="#242a34" font-size="11">#e1e4e8</text>
  <rect x="555" y="92" width="170" height="44" rx="6" fill="#adbac7" stroke="#515f72" stroke-width="0.75"/>
  <text x="640" y="110" text-anchor="middle" fill="#242a34" font-weight="bold">FG1</text>
  <text x="640" y="126" text-anchor="middle" fill="#242a34" font-size="11">#adbac7</text>
  <rect x="15" y="146" width="170" height="44" rx="6" fill="#8296aa" stroke="#515f72" stroke-width="0.75"/>
  <text x="100" y="164" text-anchor="middle" fill="#242a34" font-weight="bold">FG2</text>
  <text x="100" y="180" text-anchor="middle" fill="#242a34" font-size="11">#8296aa</text>
  <rect x="195" y="146" width="170" height="44" rx="6" fill="#515f72" stroke="#515f72" stroke-width="0.75"/>
  <text x="280" y="164" text-anchor="middle" fill="#e1e4e8" font-weight="bold">GRAY</text>
  <text x="280" y="180" text-anchor="middle" fill="#e1e4e8" font-size="11">#515f72</text>
  <text x="15" y="218" fill="#8296aa" font-size="12">Accents</text>
  <rect x="15" y="228" width="170" height="44" rx="6" fill="#ff4b82" stroke="#515f72" stroke-width="0.75"/>
  <text x="100" y="246" text-anchor="middle" fill="#242a34" font-weight="bold">RED</text>
  <text x="100" y="262" text-anchor="middle" fill="#242a34" font-size="11">#ff4b82</text>
  <rect x="195" y="228" width="170" height="44" rx="6" fill="#ff75b5" stroke="#515f72" stroke-width="0.75"/>
  <text x="280" y="246" text-anchor="middle" fill="#242a34" font-weight="bold">PINK</text>
  <text x="280" y="262" text-anchor="middle" fill="#242a34" font-size="11">#ff75b5</text>
  <rect x="375" y="228" width="170" height="44" rx="6" fill="#fdaccb" stroke="#515f72" stroke-width="0.75"/>
  <text x="460" y="246" text-anchor="middle" fill="#242a34" font-weight="bold">ROSE</text>
  <text x="460" y="262" text-anchor="middle" fill="#242a34" font-size="11">#fdaccb</text>
  <rect x="555" y="228" width="170" height="44" rx="6" fill="#ff6b35" stroke="#515f72" stroke-width="0.75"/>
  <text x="640" y="246" text-anchor="middle" fill="#242a34" font-weight="bold">ORANGE</text>
  <text x="640" y="262" text-anchor="middle" fill="#242a34" font-size="11">#ff6b35</text>
  <rect x="15" y="282" width="170" height="44" rx="6" fill="#f5b168" stroke="#515f72" stroke-width="0.75"/>
  <text x="100" y="300" text-anchor="middle" fill="#242a34" font-weight="bold">AMBER</text>
  <text x="100" y="316" text-anchor="middle" fill="#242a34" font-size="11">#f5b168</text>
  <rect x="195" y="282" width="170" height="44" rx="6" fill="#f4d35e" stroke="#515f72" stroke-width="0.75"/>
  <text x="280" y="300" text-anchor="middle" fill="#242a34" font-weight="bold">YELLOW</text>
  <text x="280" y="316" text-anchor="middle" fill="#242a34" font-size="11">#f4d35e</text>
  <rect x="375" y="282" width="170" height="44" rx="6" fill="#9ed47b" stroke="#515f72" stroke-width="0.75"/>
  <text x="460" y="300" text-anchor="middle" fill="#242a34" font-weight="bold">GREEN</text>
  <text x="460" y="316" text-anchor="middle" fill="#242a34" font-size="11">#9ed47b</text>
  <rect x="555" y="282" width="170" height="44" rx="6" fill="#00b196" stroke="#515f72" stroke-width="0.75"/>
  <text x="640" y="300" text-anchor="middle" fill="#242a34" font-weight="bold">TEAL</text>
  <text x="640" y="316" text-anchor="middle" fill="#242a34" font-size="11">#00b196</text>
  <rect x="15" y="336" width="170" height="44" rx="6" fill="#00e8c6" stroke="#515f72" stroke-width="0.75"/>
  <text x="100" y="354" text-anchor="middle" fill="#242a34" font-weight="bold">MINT</text>
  <text x="100" y="370" text-anchor="middle" fill="#242a34" font-size="11">#00e8c6</text>
  <rect x="195" y="336" width="170" height="44" rx="6" fill="#04f6f6" stroke="#515f72" stroke-width="0.75"/>
  <text x="280" y="354" text-anchor="middle" fill="#242a34" font-weight="bold">CYAN</text>
  <text x="280" y="370" text-anchor="middle" fill="#242a34" font-size="11">#04f6f6</text>
  <rect x="375" y="336" width="170" height="44" rx="6" fill="#02d9fe" stroke="#515f72" stroke-width="0.75"/>
  <text x="460" y="354" text-anchor="middle" fill="#242a34" font-weight="bold">SKY</text>
  <text x="460" y="370" text-anchor="middle" fill="#242a34" font-size="11">#02d9fe</text>
  <rect x="555" y="336" width="170" height="44" rx="6" fill="#01bdfe" stroke="#515f72" stroke-width="0.75"/>
  <text x="640" y="354" text-anchor="middle" fill="#242a34" font-weight="bold">AZURE</text>
  <text x="640" y="370" text-anchor="middle" fill="#242a34" font-size="11">#01bdfe</text>
  <rect x="15" y="390" width="170" height="44" rx="6" fill="#6fc1ff" stroke="#515f72" stroke-width="0.75"/>
  <text x="100" y="408" text-anchor="middle" fill="#242a34" font-weight="bold">BLUE</text>
  <text x="100" y="424" text-anchor="middle" fill="#242a34" font-size="11">#6fc1ff</text>
  <rect x="195" y="390" width="170" height="44" rx="6" fill="#599ac8" stroke="#515f72" stroke-width="0.75"/>
  <text x="280" y="408" text-anchor="middle" fill="#242a34" font-weight="bold">STEEL</text>
  <text x="280" y="424" text-anchor="middle" fill="#242a34" font-size="11">#599ac8</text>
  <rect x="375" y="390" width="170" height="44" rx="6" fill="#a394cd" stroke="#515f72" stroke-width="0.75"/>
  <text x="460" y="408" text-anchor="middle" fill="#242a34" font-weight="bold">PURPLE</text>
  <text x="460" y="424" text-anchor="middle" fill="#242a34" font-size="11">#a394cd</text>
  <rect x="555" y="390" width="170" height="44" rx="6" fill="#766b95" stroke="#515f72" stroke-width="0.75"/>
  <text x="640" y="408" text-anchor="middle" fill="#e1e4e8" font-weight="bold">MAUVE</text>
  <text x="640" y="424" text-anchor="middle" fill="#e1e4e8" font-size="11">#766b95</text>
</svg>
